<?xml version="1.0" encoding="UTF-8" standalone="no"?>
<!-- Created with Inkscape (http://www.inkscape.org/) -->

<svg
   xmlns:dc="http://purl.org/dc/elements/1.1/"
   xmlns:cc="http://creativecommons.org/ns#"
   xmlns:rdf="http://www.w3.org/1999/02/22-rdf-syntax-ns#"
   xmlns:svg="http://www.w3.org/2000/svg"
   xmlns="http://www.w3.org/2000/svg"
   xmlns:sodipodi="http://sodipodi.sourceforge.net/DTD/sodipodi-0.dtd"
   xmlns:inkscape="http://www.inkscape.org/namespaces/inkscape"
   width="60.229992mm"
   height="60.182789mm"
   viewBox="0 0 60.229992 60.182789"
   version="1.1"
   id="svg428"
   inkscape:version="0.92.1 r15371"
   sodipodi:docname="warp10-logo.svg">
  <defs
     id="defs422" />
  <sodipodi:namedview
     id="base"
     pagecolor="#ffffff"
     bordercolor="#666666"
     borderopacity="1.0"
     inkscape:pageopacity="0.0"
     inkscape:pageshadow="2"
     inkscape:zoom="0.35"
     inkscape:cx="175.24903"
     inkscape:cy="428.01697"
     inkscape:document-units="mm"
     inkscape:current-layer="layer1"
     showgrid="false"
     borderlayer="true"
     fit-margin-top="0"
     fit-margin-left="0"
     fit-margin-right="0"
     fit-margin-bottom="0"
     inkscape:window-width="1920"
     inkscape:window-height="1003"
     inkscape:window-x="0"
     inkscape:window-y="25"
     inkscape:window-maximized="1" />
  <metadata
     id="metadata425">
    <rdf:RDF>
      <cc:Work
         rdf:about="">
        <dc:format>image/svg+xml</dc:format>
        <dc:type
           rdf:resource="http://purl.org/dc/dcmitype/StillImage" />
        <dc:title></dc:title>
      </cc:Work>
    </rdf:RDF>
  </metadata>
  <g
     inkscape:label="Layer 1"
     inkscape:groupmode="layer"
     id="layer1"
     transform="translate(73.204282,-201.8967)">
    <path
       style="fill:#000000;stroke-width:0.28222224"
       d="m -44.504904,262.05746 c -12.251684,-0.406 -23.623313,-9.12942 -27.244689,-20.82866 -3.699858,-11.08834 -0.177673,-24.13748 8.696297,-31.77796 9.090474,-8.30147 23.423668,-9.95182 34.186849,-4.00037 10.2317,5.3467 16.691819,16.96319 15.812334,28.47771 -0.623869,12.1154 -9.368692,23.25297 -20.978001,26.76945 -3.377186,1.08272 -6.934644,1.485 -10.47279,1.35983 z m 1.510874,-3.12263 c 0.356261,-1.48872 -0.451093,-2.6724 -0.284043,-0.50122 0.04546,0.24544 -0.161494,0.63648 0.284043,0.50122 z m 2.294427,-0.11202 c 0.182949,-3.72255 -1.399942,0.0882 0,0 z m -5.528866,-0.8025 c 0.585362,-1.54536 -1.415313,-3.05375 -1.254926,-0.37696 -0.798257,1.16146 1.568341,1.68524 1.254926,0.37696 z m 6.994345,0.64749 c 0.0046,-2.23869 -1.058,0.20129 0,0 z m -8.710868,-0.27906 c -0.996826,-1.22033 -1.465063,0.54138 0,0 z m 10.222377,0.0124 c 0.04902,-1.84537 -1.062357,0.0591 0,0 z m -7.076315,-0.10473 c 0.57581,-1.40328 -0.07331,-5.55646 -0.283858,-1.84942 0.102428,0.30759 -0.406803,2.32764 0.283858,1.84942 z m 8.290242,-0.15562 c 2.816834,0.15729 0.203938,-2.02333 0.910585,-3.2608 0.524396,2.82725 3.242291,2.63607 4.763931,0.92551 -0.460835,-1.21059 -2.88858,-5.09511 -1.484804,-1.78914 1.935022,4.12701 -2.674763,-4.50831 -0.864547,-0.21624 1.262938,1.11 0.533738,2.46232 -0.19222,0.42698 -0.746591,-0.89586 -1.593755,-5.76971 -2.836752,-3.83739 0.601271,1.13926 1.788187,6.24673 0.457899,3.35626 -0.819782,-0.36096 -1.545873,-4.36074 -2.544395,-4.65112 0.615942,1.47013 1.132835,3.57536 -0.607899,3.29144 0.169032,1.29966 0.03962,5.60378 1.529152,4.08252 0.337733,0.39262 0.06079,2.08069 0.86905,1.67198 z m 0.789284,-3.57133 c -0.04473,-0.18364 0.119147,0.13944 0,0 z m -15.740109,2.94059 c 0.214243,-0.98733 2.477304,-4.65152 0.934869,-4.17142 0.263875,2.03861 -1.659021,2.11094 -1.769573,3.99745 0.155386,-0.20869 0.754442,0.58975 0.834704,0.17397 z m -1.448929,-0.6196 c 0.769052,-1.66177 -0.938579,-2.45315 -1.342185,-0.35262 0.360901,0.001 1.1449,0.88946 1.342185,0.35262 z m 14.011189,-0.076 c 0.361471,-1.29383 -1.239417,-5.42117 -0.673894,-1.8026 0.241699,0.36994 -0.04012,2.15933 0.673894,1.8026 z m -9.787119,-0.24673 c 1.041816,-2.94832 -0.688805,-0.65264 0,0 z m -0.774824,-0.7356 c 0.780912,-2.05475 -0.797768,-0.0111 0,0 z m -5.558415,-0.28056 c 0.850232,-1.05081 2.167013,-4.6056 0.268095,-1.76488 -0.07457,0.3285 -1.671337,2.38804 -0.268095,1.76488 z m 25.579122,-0.30799 c 0.90316,-1.37336 -1.874907,-2.61212 -2.520347,-3.46826 -0.244345,-1.10327 -2.373773,-3.36949 -1.077833,-0.91318 1.004221,1.10043 2.267924,4.69433 3.59818,4.38144 z m -16.954114,-0.46768 c 0.645224,-1.36549 0.237479,-4.43529 -0.180171,-1.23641 0.06167,0.23937 -0.460239,1.55358 0.180171,1.23641 z m -10.908428,-1.54032 c 0.702442,-0.8156 3.522351,-4.86166 0.929476,-3.13682 -1.124636,1.93001 -4.371168,3.13504 -1.759534,4.26564 0.302079,-0.23236 0.552693,-0.79057 0.830058,-1.12882 z m 29.642719,0.85741 c -0.431019,-2.35251 -3.354988,-2.95345 -4.190822,-5.214 -2.123909,-2.83477 -0.49774,1.31349 0.536794,2.25781 0.897559,2.07482 1.47755,-0.57408 2.224604,1.60541 0.470389,0.28787 1.018807,1.33591 1.429424,1.35078 z m -16.025823,-0.17707 c 0.707353,-1.03147 -0.09715,-5.18794 -0.466804,-2.18682 0.122142,0.46892 -0.295783,2.34266 0.466804,2.18682 z m -5.635437,-0.2676 c 0.234803,-1.1802 2.390877,-4.59377 1.244357,-4.74313 -0.206236,1.33866 -1.852582,3.81158 -1.244357,4.74313 z m -9.97449,-0.87532 c 0.243592,-1.357 -1.224455,1.51103 0,0 z m -0.453376,-0.2781 c 1.171499,-0.85806 2.784399,-5.24304 1.891527,-1.95763 -0.04031,1.37405 1.452979,-2.55679 2.48044,-2.65599 1.857073,-1.25359 0.111133,-2.96414 -0.769109,-0.75825 -1.31418,1.85448 -4.213508,3.26407 -4.295654,5.50728 l 0.326664,0.25745 z m 34.0352,0.10334 c -0.743699,-1.51146 -2.56223,-3.46496 -4.039568,-4.52724 0.588692,1.56938 2.717829,3.69984 4.039568,4.52724 z m -26.68593,-0.008 c 0.289109,-0.80314 2.521924,-3.63559 1.535013,-3.61191 -0.259151,1.04101 -2.170343,2.90996 -1.535013,3.61191 z m -8.30221,-0.90363 c -1.033286,-1.72428 3.147912,-3.01223 3.21139,-4.59961 -0.775324,1.64971 -5.50028,2.93123 -3.771522,4.8263 l 0.234586,0.12833 0.325554,-0.35501 z m 18.29694,-0.22333 c 0.339545,-1.59622 -0.53486,-2.61699 -0.284236,-0.30163 l 0.03286,0.28163 0.25137,0.02 z m -4.703752,-0.29289 c 0.925608,-1.10153 0.410652,-5.51737 -0.195571,-1.97654 0.185716,0.42704 -0.794379,2.34381 0.195571,1.97654 z m -7.73993,-0.45159 c 1.203266,-1.14031 1.8951,-3.42363 0.04904,-1.37335 0.534006,0.31065 -0.932321,1.57763 -0.04904,1.37335 z m 18.028404,-0.15273 c -0.343453,-2.17859 -1.051144,-0.49362 -0.01389,0.17447 z m -7.12978,-0.49868 c 0.491506,-1.08198 -0.161761,-2.96033 1.047919,-2.2436 -0.03219,-1.26532 0.122288,-2.26331 0.92287,-1.52034 0.502113,-1.81908 0.702519,-4.96645 -1.135923,-5.88193 -0.09499,1.04668 0.324647,2.26437 -0.4202,3.04246 0.024,2.49244 -0.672127,4.24936 -0.626491,6.78199 l 0.09331,0.0557 0.118491,-0.23434 z m 5.396063,0.0327 c 0.129601,-1.6696 -1.376063,-3.08132 -0.45349,-0.48817 0.04312,0.10043 0.177898,0.76437 0.45349,0.48817 z m 15.731049,-0.33318 c 2.026287,-1.61192 -2.848859,-2.75629 -3.757571,-4.47925 -2.195433,-0.74576 -0.980029,1.36099 0.435229,1.71024 0.890892,0.84112 2.073799,3.35094 3.322342,2.76901 z m -39.907356,-0.0252 c 1.285965,-1.36319 -0.621226,1.41232 1.046833,-0.30259 0.892914,-1.24275 2.747642,-2.72362 2.989721,-3.89185 -1.911647,0.55831 -2.637584,3.88157 -3.196762,2.99636 -0.286148,0.14208 -2.406815,1.98512 -0.839792,1.19808 z m 9.324315,-0.18791 c 0.957461,-0.79999 1.647187,-3.5312 0.185945,-1.0409 -0.0064,0.0448 -1.045831,1.50786 -0.185945,1.0409 z m 17.329651,-0.0764 c 0.284337,-1.39363 -2.098929,-4.11564 -1.085535,-1.31326 0.495578,0.19054 0.442542,1.71879 1.085535,1.31326 z m -4.743066,-0.78574 c -0.238334,-1.88284 -0.400751,1.05862 0,0 z m -8.869408,0.025 c 0.419018,-1.23569 1.796655,-2.98403 0.887115,-0.48403 1.274812,-0.93675 2.523256,-3.97487 2.500015,-6.10332 -1.81005,0.71853 -2.338785,4.55085 -3.589856,6.45633 -0.122696,0.1266 0.13217,0.39594 0.202726,0.13102 z m 15.781669,-0.11506 c 1.367382,-1.9967 -2.098413,-4.42155 -2.895381,-6.38312 -1.932405,1.00615 1.480606,3.68908 1.154928,5.44333 0.19749,0.82987 1.084622,0.84234 1.740453,0.93979 z m 8.23105,-0.11718 c -0.458732,-0.97538 -2.944646,-2.52839 -1.073304,-0.69197 0.281776,0.0733 0.708589,0.92263 1.073304,0.69197 z m -4.431014,-0.3376 c -0.413015,-1.42497 -2.458988,-2.398 -0.701027,-0.51398 0.174656,0.0982 0.50256,0.9055 0.701027,0.51398 z m 7.821826,-0.25891 c -0.403574,-1.4012 -4.87295,-3.37646 -1.704641,-0.99734 0.53613,0.22894 1.07066,1.16757 1.704641,0.99734 z m 1.195573,-0.31431 c -1.861362,-1.85765 -1.549082,-0.0739 0,0 z m -29.627356,-0.086 c 1.838746,-2.75613 -0.835499,-0.49993 0,0 z m 18.670828,-0.0673 c -0.333084,-1.19116 -0.745929,-0.0269 0,0 z m -0.76245,-0.15238 c 0.339125,-1.17232 -1.422413,-4.49769 -0.865378,-1.79461 -1.333857,-0.82112 0.472387,2.04713 0.865378,1.79461 z m -20.542132,-0.19289 c 1.234127,-1.10036 1.139853,-2.60465 -0.02376,-0.61892 -0.388764,0.002 -0.529545,1.24354 0.02376,0.61892 z m -10.311331,0.0422 c 1.000106,-0.78702 -0.78298,0.13774 0,0 z m 22.907999,-0.19622 c 0.07801,-2.6169 -1.117497,-1.2169 0,0 z m 1.836119,-0.0156 c 0.08247,-1.54479 -1.329937,-2.64061 -0.391033,-0.26759 -0.106739,0.11123 0.298315,0.54599 0.391033,0.26759 z m -12.305048,-0.47083 c 1.239364,-1.56054 0.349216,-1.73701 -0.258149,-0.0748 -0.413874,0.4655 0.140583,0.52478 0.258149,0.0748 z m 13.180734,0.28175 c -0.0498,-1.63678 -1.252681,-1.93638 -0.279858,-0.0769 l 0.143917,0.13421 z m -27.388175,-0.38023 c 1.627023,-1.61576 -1.815563,0.37347 0,0 z m 45.143232,0.0233 c -1.220941,-1.10214 -0.207285,0.78468 0,0 z m -40.146964,0.013 c 0.0693,-0.91236 -1.004634,0.28479 0,0 z m 11.283623,-0.15337 c 0.633025,-0.68484 1.439932,-3.50235 0.04465,-0.89162 -0.232308,0.0876 -0.757284,1.48644 -0.04465,0.89162 z m 19.577128,0.003 c -0.429236,-1.42097 -2.525292,-3.57939 -3.474622,-4.02735 0.996889,1.37533 1.902288,3.31532 3.474622,4.02735 z m -7.662974,-0.51121 c 0.223533,-1.4257 -1.583917,-2.4367 -0.367458,-0.34826 0.07064,0.01 0.165854,0.5163 0.367458,0.34826 z m -28.504585,-1.04215 c 2.983372,-1.3826 -1.797155,-0.89527 -0.846179,0.45082 l 0.268227,-0.13715 z m 36.335829,0.37753 c -0.119992,-1.08504 -2.960061,-2.30375 -0.879399,-0.50853 0.255056,-0.13334 0.554347,0.87403 0.879399,0.50853 z m -24.836512,-0.13403 c 2.570701,-2.26218 0.125696,-1.41011 0,0 z m 9.15978,-0.0135 c 1.250063,-2.97614 -1.18028,-0.47105 0,0 z m 12.76962,-0.28733 c 0.03089,-1.0326 -2.596201,-2.53091 -0.919372,-0.67026 0.24638,0.0544 0.557681,0.95147 0.919372,0.67026 z m -24.825149,-0.38898 c 0.96879,-1.27906 -1.685502,1.1267 0,0 z m 3.139547,-0.47819 c 2.335629,-2.37237 -2.349788,-0.35971 -1.046311,0.49988 0.510633,0.15686 0.723167,-0.0687 1.046311,-0.49988 z m 34.479518,0.37026 c -0.672319,-0.66052 -0.309581,0.40398 0,0 z m -5.418648,0.0416 c -0.601877,-1.10962 -1.513718,-0.39377 0,0 z m -41.317231,-0.41783 c 3.245959,-1.9698 -3.418228,0.96968 0,0 z m 3.407622,0.2769 c 0.917538,-0.16974 3.716344,-2.55331 1.210448,-1.23975 -0.235356,0.1529 -2.866605,1.58311 -1.210448,1.23975 z m 4.011456,-0.0843 c 2.013841,-1.12051 -0.307394,-0.82829 -0.247554,0.12694 z m 32.10414,0.0289 c -0.687601,-1.31059 -2.710973,-1.26798 -0.744574,-0.2352 0.17069,0.008 0.518255,0.47722 0.744574,0.2352 z m -1.892329,-0.0817 c -0.635854,-1.23848 -2.693294,-1.68175 -0.631211,-0.20228 0.06871,-0.0878 0.511739,0.52116 0.631211,0.20228 z m 10.07573,-0.70808 c -1.311814,-1.62148 -4.661947,-2.17588 -6.077185,-3.96564 0.289973,-1.53042 1.84491,0.13038 1.98433,0.74206 1.135422,0.45164 5.270463,2.20049 4.488228,0.78686 -3.032107,-0.44856 -3.656947,-1.83777 -6.180093,-2.65061 -2.065792,-0.10922 -5.262237,-3.05364 -6.718959,-1.10943 1.896788,2.42946 5.667354,2.14736 8.001551,4.01872 1.32194,0.52525 3.596071,2.42778 4.502128,2.17804 z m -4.051289,-3.937 c -0.07962,-0.26508 0.360709,0.25737 0,0 z m -21.889204,4.15432 c 0.887026,-0.94344 0.630608,-5.78707 0.01961,-2.31567 0.09842,0.39984 -0.745932,2.50263 -0.01961,2.31567 z m -1.00185,-0.37899 c 1.301954,-1.06131 0.253537,-3.25568 -0.187182,-0.71487 -0.03637,0.0201 -0.375304,1.20759 0.187182,0.71487 z m 5.058312,-0.0215 c 0.03727,-2.59991 -1.542222,-1.16599 0,0 z m 1.135182,-0.13555 c -0.285981,-1.88821 -0.838431,0.0354 0,0 z m 12.036229,-0.158 c -0.09307,-1.48191 -4.867947,-2.86408 -1.618118,-0.77799 0.491686,0.17647 1.065959,1.04819 1.618118,0.77799 z m -31.489382,-0.0762 c 3.792409,-2.44631 -1.756555,0.11616 0,0 z m 27.073875,-0.10602 c -0.539099,-1.29212 -1.37781,-0.22864 0,0 z m -32.107143,-0.3847 c 1.866881,-0.51743 5.119825,-1.59572 4.854635,-3.6627 -1.822306,-0.0149 -7.732983,2.13799 -4.854649,3.6627 z m 10.457717,-0.26762 c 2.187028,-1.52525 0.494544,-2.36718 -0.604289,-0.32304 0.07221,0.23006 0.379302,0.56049 0.604289,0.32304 z m 3.515194,-0.0732 c 1.637865,-1.58921 -0.599215,-0.97144 -0.17456,0.11899 z m 12.954886,-0.13506 c -0.526907,-1.78588 -1.148096,-0.29353 0,0 z m -30.707049,-0.52937 c 1.939239,-0.28912 1.47191,-1.38071 -0.266438,-0.33407 -1.303025,0.18915 -0.351064,1.15164 0.266438,0.33407 z m 8.136143,0.15652 c 1.833008,-1.20382 -1.404581,0.25751 0,0 z m 3.218936,-0.18398 c 1.120349,-1.59172 4.994902,-2.24871 4.550453,-4.1541 -2.125794,0.40025 -2.689428,1.95775 -3.811578,3.0598 -0.280724,0.0646 -1.860211,1.39937 -0.738875,1.0943 z m 10.020452,-0.53463 c 1.318808,-2.40145 -1.017514,-0.25089 0,0 z m 15.483131,-0.0458 c -1.314794,-1.5425 -2.261359,-0.55298 0,0 z m -37.343528,-0.15918 c 2.698456,-1.1639 -2.37214,0.14008 0,0 z m 50.593306,-0.0192 c -1.133772,-1.06666 -1.372619,0.23697 0,0 z m -35.837954,-0.35788 c 0.190601,-0.74077 -0.701207,0.34496 0,0 z m 36.000593,-0.15026 c 0.757851,-1.7478 1.117597,-3.81804 -1.269635,-2.88337 -1.394621,-0.16347 -3.794993,-1.03089 -0.866143,-0.50642 3.018695,0.37628 -2.027393,-1.41158 -2.2001,-0.29961 -1.885421,-0.62094 1.819577,1.79473 -0.669523,1.30044 -2.829086,-0.13422 1.905424,1.96066 2.85133,1.84879 0.643282,0.0566 1.617451,0.69891 2.154071,0.54017 z m -32.103082,-0.36936 c 2.490061,-3.20285 -2.056875,0.45041 0,0 z m 6.423396,0.169 c 0.450064,-1.80786 -0.848712,0.0411 0,0 z m 14.840302,0.0244 c -0.115779,-0.81209 -4.404098,-2.0233 -1.673897,-0.58453 0.533987,0.17999 1.072936,0.77222 1.673897,0.58453 z m -5.356431,-0.0591 c 0.687678,-2.18008 -3.59551,-1.82182 -0.649018,-0.27422 0.195085,0.0652 0.396383,0.42747 0.649018,0.27422 z m -3.022468,-0.25916 c -0.644414,-1.77784 -1.469033,-0.27759 0,0 z m -14.873227,-0.25552 c 2.061213,-1.34594 -0.783567,-0.98266 -0.332288,0.22805 z m 20.483701,0.0648 c -0.559142,-1.17351 -4.191609,-2.33698 -1.326272,-0.5056 0.387263,0.17659 0.896485,0.77372 1.326272,0.5056 z m -37.176875,-0.38403 c 1.960564,-0.19987 1.670581,-1.22883 -0.202582,-0.45523 -1.536756,0.0811 -1.00181,1.07928 0.202582,0.45523 z m 19.967613,0.0119 c 1.297869,-2.02555 -1.398454,0.72368 0,0 z m 6.042535,-0.0373 c 0.222618,-2.8844 -1.382776,0.16769 0,0 z m -0.850818,-0.14618 c 0.419145,-1.66197 -0.919662,-0.0127 0,0 z m 4.030038,-0.29797 c -0.524375,-1.58303 -0.920321,0.14466 0,0 z m -1.324983,-0.0566 c -0.375028,-0.37493 -0.16615,0.42037 0,0 z m -22.582991,-0.0423 c 1.366563,-0.023 4.492185,-0.81388 1.693732,-0.80349 -1.004409,-0.0551 -4.738015,1.27204 -1.693732,0.80349 z m 19.269061,-0.17432 c 1.127461,-1.34219 0.327168,-2.77364 -0.508857,-0.75556 -0.195863,0.26611 0.05678,1.04669 0.508857,0.75556 z m 5.372447,-0.047 c 0.300667,-1.428 -2.127914,-1.41558 -0.262911,1.5e-4 l 0.129106,0.0502 0.133805,-0.0502 z m -11.432082,-0.0873 c 2.101616,-1.20077 -0.523917,-1.18564 -0.175381,0.066 l 0.175375,-0.066 z m -18.825011,-0.36703 c 2.881108,-0.32796 4.214947,-2.51668 7.36759,-2.34413 2.327368,-1.01724 4.554389,0.33088 6.553378,-0.83616 -1.346203,-0.94765 -1.271247,-1.59589 -0.113335,-2.1012 -2.295878,0.10273 -4.319061,0.97722 -6.999405,1.11101 -0.968552,1.96611 -4.088449,1.54317 -5.67729,1.09312 -1.245413,-0.63505 -4.190675,0.89185 -1.360833,0.69256 -3.311531,1.06851 1.760031,-0.17501 2.286819,0.21266 -0.826897,0.79407 -4.918888,0.64349 -2.760145,2.32546 l 0.318917,-0.069 0.38431,-0.0843 z m 32.252951,-0.27478 c -0.662879,-1.73074 -2.015617,-0.25075 0,0 z m -14.061374,-0.0679 c 3.052764,-1.5122 -0.980719,-1.47068 -0.41039,0.0965 z m 3.209355,-0.0273 c 0.875386,-1.29822 -1.042729,0.3441 0,0 z m -14.116061,-0.29105 c 2.53551,-0.44385 1.030026,-1.23365 -0.68015,-0.32405 -1.400771,0.52923 0.273775,0.64716 0.68015,0.32405 z m 15.501907,0.0177 c 1.615017,-1.27067 -0.07836,-2.5648 -0.621609,-0.51353 -0.14772,0.35186 0.299085,0.72681 0.621609,0.51353 z m -17.841897,-0.0366 c 1.299735,-0.70928 -1.175151,0.0807 0,0 z m 7.796294,-0.1145 c 1.43488,-0.19197 3.619045,-0.86671 1.146742,-1.31329 -1.155096,-0.63233 -4.506886,1.19403 -1.689481,1.40365 z m 4.341306,-0.19196 c 1.722837,-0.56688 1.918626,-2.39869 -0.03729,-0.64161 -0.723875,0.10929 -0.820838,1.1337 0.03729,0.64161 z m 3.68475,0.055 c 1.924617,-1.38268 -0.996191,-0.82844 -0.213806,0.0472 l 0.213834,-0.0472 z m 6.662908,-0.0711 c -0.121777,-0.71076 -0.561573,0.48246 0,0 z m -0.881327,0.002 c -0.191071,-0.19831 -0.163875,0.17307 0,0 z m 10.255022,-0.0915 c -0.05716,-1.40972 -3.779218,-1.01475 -0.870182,-0.13771 l 0.598971,0.18734 z m 6.96199,-0.30413 c -1.103329,-0.93623 -3.278603,-0.28304 -0.625147,0.0656 0.01159,-0.15122 0.72273,0.25285 0.625147,-0.0656 z m 7.267591,-0.0712 c -0.274429,-0.24576 -0.492099,0.17243 0,0 z m -26.189983,-0.39013 c 0.469892,-1.80422 -0.847592,-0.28405 0,0 z m 14.764475,-0.12156 c 0.638307,-1.50238 -3.435649,-1.68681 -4.16778,-1.36277 1.297297,0.57508 2.719324,1.32528 4.16778,1.36277 z m 10.908932,-0.0357 c 0.768036,-0.27024 2.719409,-0.62331 1.224693,-1.73659 -1.674884,0.32241 -2.658861,-0.96889 -3.66558,-0.46137 3.012295,1.06783 -4.876064,1.05391 -1.060968,1.77094 1.173546,0.0724 2.33109,0.46357 3.501855,0.42702 z m -35.89217,-0.0763 c 0.316733,-0.61748 -0.71714,0.25867 0,0 z m 18.88046,-0.26045 c -0.06237,-0.71677 -0.747665,0.15253 0,0 z m -1.905405,-0.0926 c -1.105469,-1.52433 -1.969821,-0.12483 0,0 z m -15.368843,-0.16211 c 2.458624,-0.98167 -1.809146,-0.15685 0,0 z m 11.108239,-0.10307 c 2.077619,-0.71333 -2.78714,-2.8451 -0.808048,-0.14485 l 0.423621,0.21502 0.384432,-0.0702 z m 15.903903,-0.33914 c 0.287232,-1.46042 -5.603637,-0.71943 -1.714082,-0.11457 0.569026,0.0226 1.147368,0.25781 1.714082,0.11457 z m -25.358351,-0.18185 c 1.13604,-0.93624 -1.679908,0.24836 0,0 z m -18.200315,-0.19592 c 3.541652,-0.6775 -3.915884,0.004 -8e-6,2e-5 z m 28.665614,-0.44326 c 0.46283,-1.61052 -2.412381,-0.23348 0,0 z m -6.192464,-0.18578 c -0.195977,-0.65897 -0.411748,0.56079 0,0 z m 30.080204,-0.0695 c -0.335712,-1.00735 -2.798001,0.24855 -0.302062,0.0525 l 0.302054,-0.0525 z m -32.254138,-0.0208 c -0.390384,-0.53344 -0.03807,-0.17403 0,0 z m 26.836111,-0.14103 c -0.257738,-1.26361 2.637909,-1.20213 0.197885,-1.37985 -1.661795,0.90951 -5.379239,-0.9196 -5.805885,1.00558 1.785321,0.39081 3.770075,0.4778 5.608,0.37427 z m -30.000672,-0.18658 c 2.159827,-1.04604 -2.623168,0.0358 0,0 z m -9.153124,-0.32597 c 3.050133,-0.80837 -2.619565,0.13204 -1.576928,-1.4361 -1.139112,-0.31449 -6.006833,0.15058 -4.461006,-1.68184 -1.734665,-0.74237 -4.393334,-0.21628 -2.144034,0.44022 -1.781183,-0.58787 -1.716969,3.66725 0.474932,2.34442 3.244043,-0.39811 -4.023351,-1.53233 -0.227578,-1.38729 1.523436,0.74113 3.717908,0.41258 4.911234,1.18031 1.054123,0.28457 1.523857,0.91485 3.02338,0.54028 z m 27.951269,-0.25541 c 0.152913,-0.66363 -1.220533,0.19148 0,0 z m -13.068279,-0.11074 c -0.132244,-0.34741 -0.136594,0.34396 0,0 z m 10.65806,0.0557 c 0.181269,-1.05002 -1.621637,0.38484 0,0 z m -15.870533,-0.199 c -0.501941,-1.18638 -2.615772,0.63472 0,0 z m 14.64212,0.0134 c -0.353264,-1.13435 -1.912345,0.55039 0,0 z m 6.727701,-0.15323 c 2.884233,-1.36052 -3.797284,0.23261 -0.366575,0.1593 0.11721,-0.0576 0.469019,0.1312 0.366575,-0.1593 z m 13.560856,-0.42275 c -0.280435,-1.46166 -4.515133,-1.04791 -5.38729,-0.46471 1.815817,0.0405 3.532206,0.85036 5.38729,0.46471 z m -26.986421,-0.0286 c 0.580076,-1.12834 -1.122836,0.009 0,0 z m 12.419,-0.2493 c -0.104357,-0.56673 -0.844939,0.39649 0,0 z m -28.394361,-0.0984 c -0.216699,-1.12599 -4.197611,0.16531 0,0 z m 13.950196,0.0131 c 0.20647,-1.12788 -1.421686,0.15409 0,0 z m 23.228816,-0.0961 c -0.757661,-0.34203 -2.662346,-0.68731 -3.814017,-0.23601 1.168998,0.15138 2.50484,0.42115 3.814001,0.23604 z m -30.077567,-0.0637 c -0.159323,-1.31288 -3.346374,-1.3e-4 -0.599144,0.0601 l 0.301182,0.0133 0.297948,-0.0734 z m 2.58204,0.0257 c -0.191144,-0.81825 -1.04295,0.2853 0,0 z M -29.10694,231.029 c -0.155265,-0.78351 -1.66652,0.32294 0,0 z m -27.92714,-0.27836 c 0.655893,-1.02986 -3.077853,-0.45009 -0.669499,0.0713 l 0.457519,0.0359 z m 12.190509,0.0331 c 0.07761,-1.33861 -1.314738,0.256 0,0 z m 1.372442,-0.38034 c -0.03127,-1.14641 -0.879708,0.44948 0,0 z m -18.45531,0.0388 c 0.119228,-0.98615 -4.832136,-0.38864 -1.351625,-0.0185 0.44789,0.016 0.904365,0.0958 1.351625,0.0185 z m 7.581917,-0.0422 c -0.400211,-1.91547 -4.462083,0.054 -0.906159,0.006 l 0.617189,0.0499 0.28897,-0.056 v 0 z m 3.379552,0.0136 c -0.489876,-0.98521 -1.37644,0.2195 0,0 z m 16.956915,-0.15029 c 2.2367,-0.94157 -2.550692,0.0903 0,0 z m -7.896249,-0.22369 c 0.142391,-1.26686 -0.881822,0.6326 0,0 z m -5.237223,0.0986 c -0.288666,-1.3019 -1.603198,0.0667 0,0 z m 1.255506,-0.007 c -0.17068,-1.75058 -1.883101,0.0229 0,0 z m 5.369269,-5.3e-4 c 0.242218,-1.01456 -1.106522,0.19462 0,0 z m 16.607226,-0.1412 c 1.154531,0.0485 5.215136,-0.69862 1.877322,-0.57009 -0.901668,-0.12169 -4.671901,0.63536 -1.877338,0.57008 z M -58.069844,229.848 c -0.177664,-1.19799 -3.89691,-0.41948 -0.805493,-0.0119 l 0.501523,0.0476 z m 26.891899,-0.0449 c 2.71367,-0.74261 -2.171438,-0.21339 0,0 z m -3.954798,-0.22205 c 2.330291,-1.05219 -1.889578,0.003 0,0 z m -30.136427,-0.0706 c 1.466114,0.5583 4.93403,-0.80215 1.671879,-1.14461 -1.374357,0.38494 -2.297594,0.74471 -3.819948,0.79184 0.640418,0.28216 1.445756,0.35628 2.148069,0.35277 z m 27.862592,-0.27387 c 1.908869,-1.16297 -1.738553,-0.43377 -0.486383,0.2 z m -20.453561,-0.024 c 0.472327,-0.53605 4.202998,0.49449 1.474473,-0.70217 -1.610289,-0.52238 -2.465459,0.32614 -3.900591,0.24828 0.691685,0.35052 1.657139,0.65343 2.426118,0.45389 z m 22.307301,-0.0589 c 0.623559,-0.77432 -1.12671,0.23112 0,0 z m 3.184988,-0.0516 c 1.478505,-0.0812 2.541082,-1.5672 3.037737,-2.12196 -0.609576,-0.11332 -6.19487,2.46092 -3.037737,2.12196 z m -19.149643,-0.15652 c -0.137028,-1.89521 -2.95152,-0.16094 -0.169294,0.0661 l 0.169308,-0.0661 z m -14.836497,-0.2448 c 1.163791,-1.75785 -5.098652,-2.21001 -3.094406,-0.29615 1.015041,0.0119 2.113156,0.62229 3.094406,0.29615 z m 26.590406,0.085 c -0.183909,-0.41812 -0.268086,0.22243 0,0 z m 12.937609,-0.48329 c 1.479505,0.0722 5.624489,-0.84666 2.667598,-0.98672 1.482598,-0.082 2.633612,-1.11957 0.423902,-0.46989 -0.857588,0.57895 -5.570984,0.49427 -3.662031,1.59841 z m 10.141617,-0.0588 c 1.218168,-0.99449 -2.318816,0.33571 0,0 z m -18.356207,-0.18519 c 2.230721,-1.78989 -2.459085,0.7101 0,0 z m -6.416246,0.0595 c 1.716532,-2.44792 -1.517534,-0.67631 0,0 z m 22.950955,-0.0908 c 2.184427,-0.60398 -1.851646,-0.26256 -0.664379,0.0716 z m -26.452176,-0.0322 c 0.01048,-2.10954 -1.580454,-0.46747 0,0 z m 1.531908,-0.22096 c 0.173604,-1.3108 -0.751488,0.0177 0,0 z m -17.032686,0.0111 c -0.731602,-1.07938 -2.310012,-0.0479 0,-2e-5 z m 23.354209,-0.10462 c 2.086557,-1.45394 -1.06776,-0.34154 0,0 z m -15.417454,-0.13021 c -0.06554,-0.811 -1.564146,0.10448 0,0 z m 32.669311,-0.38342 c 1.188226,0.15968 4.710663,-1.41407 1.599301,-1.02514 -1.568728,0.004 -5.229939,1.67566 -1.599303,1.02514 z m -7.082012,0.14894 c 2.430071,-0.63943 4.910394,-1.93063 6.823951,-3.07527 -2.490449,0.73358 -0.544261,-0.62428 -0.515411,-1.14616 -1.96665,0.60792 -3.905099,2.11517 -5.236943,2.46741 1.483384,-0.40843 2.544265,0.17048 0.287145,0.61159 -0.409171,-0.0807 -3.475183,1.30254 -1.358742,1.14243 z m -28.221643,-0.18288 c -1.02671,-1.28091 -2.789397,-0.35705 0,0 z m 1.473087,-0.0826 c -0.802304,-1.13817 -2.855146,-0.67598 -0.509036,0.0587 0.02653,-0.0461 0.533491,0.21633 0.509036,-0.0587 z m -11.312365,0.004 c -0.618806,-0.95475 -6.801194,-1.6954 -2.972074,-0.62038 0.960262,0.23806 1.991228,0.6829 2.972074,0.62036 z m 16.17517,-0.0443 c 0.762965,-1.18745 -2.073374,-1.85635 -0.60257,-0.16809 l 0.354025,0.2592 0.248545,-0.0911 z m 9.849303,-0.12605 c 1.966597,-2.83685 -1.188337,-0.1684 0,0 z m 6.627891,-0.2147 c 1.419741,-0.72873 3.998418,-1.60729 3.450088,-3.07202 1.844987,2.26387 4.965366,-2.23844 7.158659,-1.95734 1.290981,-0.006 3.685564,-2.08693 0.928349,-0.70986 -1.291778,-0.24687 3.397655,-0.64372 1.327835,-1.95801 -1.190591,0.46361 -4.450101,2.1781 -4.430863,1.45715 1.195012,-0.63484 5.466728,-2.87843 2.747518,-3.15311 -1.853528,1.23771 -4.025244,2.62641 -4.090776,3.93054 -2.029362,1.7146 -4.734491,1.70663 -6.369317,3.85938 -0.70739,0.20416 -2.961116,1.91779 -0.721493,1.60327 z m 2.446801,0.0211 c 1.22456,-0.22454 2.821284,-1.08837 1.306221,-1.01307 1.482157,-1.46509 3.12292,-0.19834 3.833696,-1.53627 -1.436592,0.83564 -1.527873,-0.99743 -3.247892,0.52836 -1.260078,0.5809 -1.458598,1.52648 -2.274115,2.10776 z m -30.735145,-0.0728 c 0.32313,-1.06218 4.317261,0.82071 1.763401,-0.64244 -1.388779,-0.94406 -2.875777,-1.24155 -3.268642,-0.56793 -1.063074,-0.0648 -5.167825,-2.45787 -4.248371,-0.32862 1.869432,0.46243 3.903487,1.53318 5.753612,1.53899 z m 23.803413,-0.2288 c 1.919317,-1.90401 -1.479518,0.4971 -5e-6,0 z m -14.83331,0.082 c -1.333127,-1.77711 -2.0451,-0.23855 0,0 z m -14.447331,-0.27042 c -0.89114,-0.92996 -2.314615,-0.18283 -0.195295,0.0665 z m 48.184671,-0.4692 c 2.828039,-0.70445 -2.08788,-1.03791 -1.457907,0.27796 0.498589,0.004 0.977715,-0.16745 1.457907,-0.27796 z m -29.487643,0.0897 c 0.870169,-1.49719 -3.119842,-4.40716 -1.591728,-1.45361 0.456193,0.43168 0.859446,1.64342 1.591728,1.45361 z m 8.007075,-0.10664 c 0.12805,-0.41977 -0.399116,0.1455 0,0 z m -11.288617,-0.1983 c 0.09496,-0.49318 -0.4387,0.15615 0,0 z m 7.761043,-0.0964 c 1.151112,-2.41934 -1.596252,-2.23538 0,0 z m 2.04833,-0.33806 c 0.97839,-1.85021 -0.943432,-0.37758 0,0 z m -8.527082,-0.21787 c 0.687592,-1.2292 -3.49953,-3.96872 -1.579462,-1.27254 0.478502,0.3869 0.875061,1.38214 1.579462,1.27254 z m 15.558215,-0.0661 c 2.728603,-2.20325 -1.50858,0.0418 0,0 z m -24.841184,-0.0244 c -0.670523,-1.27292 -4.655316,-2.75306 -1.840699,-0.65483 0.561733,0.17971 1.242032,0.82905 1.840699,0.65483 z m 20.033046,-0.23223 c 1.169922,-1.92061 -1.090467,0.181 0,0 z m 1.994445,-0.0915 c 0.966925,-1.27237 -1.003009,0.41794 0,0 z m 17.918787,0.0293 c 2.703005,0.87476 0.915948,-3.96471 -0.90761,-1.72213 -1.159751,0.85298 2.903558,0.32374 0.410181,1.40418 -0.506712,0.20886 0.322508,0.62991 0.497429,0.31795 z m -32.380298,-0.0665 c -0.351807,-0.86067 -2.338553,-3.71403 -3.010973,-3.38229 1.453651,0.88352 1.315672,2.94809 3.010973,3.38229 z m 13.689566,-0.0885 c 1.53902,-1.38435 -0.366128,-1.35562 -0.14422,0.0799 z m -27.166773,-0.0458 c 0.249566,-1.34545 -6.322295,-2.31945 -2.577589,-0.73563 0.870771,0.14998 1.747819,0.62608 2.577589,0.73563 z m 18.388641,-0.0452 c 0.389774,-1.51395 -1.250506,-3.65898 -0.935532,-1.09442 0.276208,0.23293 0.332051,1.51071 0.935532,1.09442 z m 1.877256,-0.12338 c 0.0714,-1.12003 -0.705522,0.15647 0,0 z m 13.631439,-0.47423 c 1.505469,-1.43894 5.810901,-2.69224 4.480227,-5.11207 0.820766,-0.92624 3.654097,-3.86851 0.811389,-1.72253 -0.629774,-0.10927 4.458145,-3.94513 1.537473,-1.96583 -1.659141,0.37365 1.798098,-1.52089 -0.319297,-2.08668 -0.74786,-1.60989 -2.647505,-1.37715 -2.514507,0.29767 3.404505,-1.21515 -2.754889,2.66445 -1.756421,4.21864 0.313553,1.16133 -2.163127,3.9882 -3.15881,3.80243 1.708161,-2.55114 -2.901222,1.635 -0.523687,1.45801 0.16342,0.7179 0.512562,1.71168 1.443633,1.11036 z m 2.068118,-4.45913 c 0.288912,-1.08018 3.56784,-4.11955 3.679926,-3.81461 -0.857774,0.42066 -3.375618,3.47203 -1.000744,1.65602 -0.850228,0.71703 -1.633943,1.75244 -2.679182,2.15859 z m -27.293354,4.16682 c 0.489229,-0.95303 -2.469462,-1.89133 -0.750683,-0.28958 0.192574,-0.005 0.548236,0.7422 0.750683,0.28958 z m 16.198232,-0.15058 c 1.15439,-1.28023 0.552143,-2.97791 -0.224224,-0.71969 -0.208245,-0.002 -0.244835,1.226 0.224224,0.71969 z m 4.698294,-0.0471 c 1.839497,-1.47354 -0.02008,-1.2743 -0.289468,0.0796 l 0.104632,0.0357 z m -10.679052,-0.0438 c -0.697823,-1.16676 0.980628,-3.79001 -0.526833,-3.90682 -0.429228,0.90285 -1.292693,-3.59223 -2.260932,-4.06767 0.568285,2.70271 1.898418,5.26362 2.559393,7.96199 l 0.114196,0.0678 0.114168,-0.0553 z m 8.332039,-0.16786 c 1.048128,-0.67703 1.225642,-3.23906 0.07779,-1.10463 -0.140867,0.13429 -0.902382,1.48472 -0.07779,1.10463 z m -10.801105,-0.74444 c -0.418022,-2.45871 -1.643888,-1.01163 0,0 z m -19.627665,-0.19991 c 0.939366,-0.51299 1.939694,0.0167 0.246603,-0.92215 -0.220271,-0.3665 -1.092838,1.70161 -0.246603,0.92215 z m 16.974528,-0.14889 c -0.196511,-1.88552 -2.145188,-4.6999 -4.03494,-5.23583 -0.762728,-1.99361 -1.68242,-4.33996 -3.530877,-5.80061 -0.582345,0.72364 0.944533,1.91422 -0.692548,0.42201 -2.006512,-1.35928 0.876789,2.484 1.493408,3.06485 0.783951,0.95803 2.898261,3.35467 0.708457,1.21721 -2.559784,-2.41537 0.745823,1.83688 1.499663,2.47624 0.426029,1.15098 2.413554,3.96983 2.571951,2.15344 0.689232,0.42679 1.01278,1.93738 1.984886,1.70269 z m -6.486675,-8.57439 c -1.18675,-1.41625 0.02351,-0.36869 0,0 z m -0.610297,8.53197 c -0.165557,-1.30931 -3.101755,-1.64716 -1.671464,-2.66875 -1.538103,-0.77933 -3.619695,-4.50073 -5.076927,-2.92228 1.287898,1.48443 4.318246,2.3823 3.709735,3.75205 0.974968,0.5663 1.95518,1.71862 3.038656,1.83898 z m -3.693208,-0.12902 c -1.041829,-1.19753 -3.609372,-1.56744 -0.843492,-0.20821 0.215011,-8.5e-4 0.610515,0.50898 0.843492,0.20821 z m 17.761225,0.001 c 0.55349,-1.31429 -0.863658,-3.80794 -0.565666,-1.00851 0.07735,0.2811 -0.05887,1.26576 0.565666,1.00851 z m 7.936664,-0.16801 c 0.647769,-1.18046 -0.850487,0.29322 0,0 z M -65.73101,221.3555 c -0.312676,-1.40505 -3.303289,-1.10151 -0.782963,-0.10839 0.230742,0.0472 0.538658,0.2771 0.782963,0.10839 z m 15.863944,-0.46994 c -0.190799,-1.22702 -0.961836,-0.18412 0,0 z m 11.359367,-0.45472 c 1.02894,-1.73932 -0.732732,-1.96773 -0.636175,0.0453 0.123481,0.24686 0.624588,0.3503 0.636175,-0.0453 z m 6.743406,-0.31086 c 1.957393,-1.60031 0.720132,-2.14299 0,0 z m -33.207014,-0.12606 c -1.352186,-1.42401 -1.521217,-0.0247 0,0 z m 9.779145,-0.25678 c -1.813498,-1.83885 -2.802204,-4.41538 -5.14422,-5.70398 -2.932368,-2.02627 2.806364,2.53129 1.24403,2.52528 1.170807,1.21934 2.792084,2.60732 3.949237,3.2982 l -0.04904,-0.11947 z m 20.422163,0.13679 c 0.929843,-0.58666 3.979449,-5.44657 1.707882,-2.69594 -0.26162,0.56827 -2.383549,2.72603 -1.707882,2.69594 z m -2.582027,-0.14024 c 1.155391,-1.37995 0.610015,-2.95843 -0.219715,-0.44343 -0.311391,0.0956 0.01728,0.78277 0.219715,0.44343 z m -24.613086,-0.10546 c -0.747223,-1.33788 -3.624061,-1.75432 -0.884033,-0.32203 0.276293,0.003 0.570278,0.51754 0.884033,0.32203 z m 19.200216,-0.29814 c 0.28325,-1.5418 -0.593521,-0.22068 0,10e-6 z m 6.921643,-0.33498 c 1.263343,-1.85193 -0.469595,-0.78088 -0.256177,0.28245 z m 10.570287,0.0117 c 1.450488,-0.60683 3.417343,-3.05365 0.831723,-1.12115 -0.202033,0.14278 -2.018059,1.42137 -0.831723,1.12115 z m -24.347537,-0.22563 c 0.367425,-0.95084 -0.59951,-3.19689 0.790581,-1.48332 1.176009,-2.05118 -1.340121,-5.1327 -1.990649,-7.43455 -1.622346,-0.26813 -1.898639,-4.62046 -0.515945,-1.50088 0.656235,-2.19127 -1.804105,-2.25752 -1.566909,-0.44438 0.853774,2.59091 2.151996,5.08898 2.522206,7.71326 -0.541567,0.99152 -0.428071,2.63098 0.760716,3.14987 z m 8.227776,-0.65198 c 0.191138,-1.52217 0.834213,1.0893 0.862788,-1.0886 -0.350528,-1.02883 0.155313,-4.5853 -0.539242,-1.60795 -0.485553,0.9862 1.023956,-6.2249 -0.904028,-3.51673 -0.536798,2.0824 -0.510691,4.94353 0.580469,6.2134 z m -24.695503,-0.16463 c -0.151302,0.0329 -0.233519,0.48374 0,0 z m 34.036038,-0.48106 c 1.306897,-0.60452 3.544867,-2.94395 3.017121,-4.1006 -0.892072,0.91566 -3.237741,3.64907 -3.017121,4.1006 z m -14.81486,-0.16399 c 0.186667,-1.57614 -1.638676,-2.34445 0,0 z m 11.829657,-0.35774 c 0.915011,-1.05037 3.093743,-2.71856 2.467795,-4.21622 -0.486709,1.18475 -3.026376,3.69795 -2.467795,4.21622 z m -30.005672,0.005 c -0.190746,-0.91721 -0.783272,0.44411 0,0 z m 28.543079,-0.10136 c 1.087284,-0.82712 2.732968,-6.21187 0.870474,-2.97476 -0.234008,0.75598 -1.331355,2.54324 -0.870474,2.97476 z m 6.956293,-0.32651 c 1.414565,-1.03631 1.650552,-2.83129 0.09486,-0.67426 -0.345101,0.20463 -0.858255,1.25489 -0.09486,0.67426 z m -31.574651,0.0297 c -0.66086,-1.19465 -3.125406,-2.35075 -0.983977,-0.56253 0.284717,0.0575 0.634876,0.78919 0.983977,0.56253 z m 8.365543,-0.45141 c 0.0311,-1.11709 -3.526454,-5.72085 -1.923629,-2.49365 0.641511,0.66067 0.986093,2.39432 1.923629,2.49365 z m 1.712567,-0.24423 c 0.163088,-1.46261 -2.580803,-4.18564 -0.899944,-1.16142 0.281787,0.20335 0.402271,1.4517 0.899944,1.16142 z m 7.098315,-0.24056 c 0.595376,-1.26547 -0.689673,-4.69741 -0.463063,-1.44479 0.14895,0.28056 -0.191807,1.75775 0.463063,1.44479 z m 9.148352,-0.27075 c 0.821463,-0.8312 1.562026,-3.98028 0.245584,-1.36929 -0.04861,0.28219 -0.997032,1.50911 -0.245584,1.36929 z m -2.70011,-0.12937 c 0.781802,-2.15282 2.319798,-2.82909 2.695697,-5.39167 -1.22728,-0.52119 1.411809,-5.18585 -0.74604,-2.60657 -1.6354,1.97454 -1.963201,5.26879 -2.581609,7.80037 0.114208,0.21869 0.411793,0.32198 0.631952,0.19791 z m 2.01376,-5.19686 c 0.105095,-0.382 0.07325,0.31914 0,0 z m -4.315804,4.2632 c 0.778343,-1.19733 0.05045,-5.14321 -0.228147,-1.60337 0.109032,0.17772 -0.351687,2.18708 0.228147,1.60337 z m -2.795228,-0.91142 c -0.271512,-2.02456 -0.248406,1.79395 0,0 z m -4.392617,0.42814 c 0.296066,-1.09359 -1.058011,-3.60529 -0.520886,-1.09383 0.16681,0.14681 0.03562,1.24433 0.520886,1.09383 z m 16.39616,-0.40457 c 2.144062,-2.75779 -0.858578,-0.17193 0,0 z m -25.150041,-0.34497 c -0.260853,-1.25329 -2.625658,-3.30827 -0.929488,-0.89244 0.25332,0.21477 0.530403,1.07303 0.929488,0.89244 z m 1.430544,-0.94765 c 0.205337,-1.13606 -3.209109,-5.31334 -1.986742,-2.45097 0.573687,0.7473 1.152192,2.17824 1.986742,2.45097 z m 22.647567,-0.3549 c 0.223594,-0.67531 3.140646,-3.90018 1.471043,-2.82781 -0.329856,0.31729 -2.38199,3.03003 -1.471043,2.82781 z m -20.63073,-0.15756 c 0.133745,-1.31593 -3.065981,-6.11031 -1.486231,-2.43278 0.460613,0.59277 0.781307,2.41849 1.486231,2.43278 z m -1.057935,-0.10646 c -0.111447,-1.37907 -2.624961,-4.74546 -1.050894,-1.45682 0.331159,0.30802 0.463928,1.60699 1.050894,1.45682 z m 6.445783,-0.18546 c 0.239901,-1.50873 -1.124528,-3.8779 -0.484076,-1.0018 0.20445,0.21791 -0.08319,1.2812 0.484076,1.0018 z m 20.159123,-0.0631 c 0.650613,-1.79286 -1.977813,-0.70588 0,0 z m -12.812059,-0.46287 c 0.346499,-1.50427 2.597465,-5.80074 -0.283109,-5.5685 -0.198747,1.39392 -1.599348,4.81178 0.01339,5.66967 l 0.269732,-0.10119 z m -2.511787,-0.13598 c -0.0085,-1.73154 0.345837,-4.63274 -0.508498,-5.63759 -1.118116,-0.15837 -0.09862,2.1703 -0.445756,3.16338 0.09129,0.96395 -0.399474,2.39366 0.954254,2.47421 z m -3.166735,-0.49445 c 0.909447,-0.99002 -0.176442,-5.24 -0.652923,-2.71954 0.283255,0.64214 -0.196622,2.72435 0.652923,2.71954 z m -2.840949,-0.25167 c 0.120537,-1.2451 -1.023107,-2.92311 -0.436731,-0.6926 0.0045,0.006 0.346256,1.57394 0.436731,0.6926 z m 6.860737,0.20998 c -0.02625,-0.6235 -0.539617,0.28022 0,0 z m -4.624413,-0.21605 c 0.203303,-1.49774 -0.903206,-4.10083 -0.452591,-1.00022 0.173667,0.064 -0.07239,1.37351 0.452591,1.00022 z m 11.794736,-0.42467 c 0.826685,-1.0316 0.801512,-2.99885 0.01786,-0.69294 0.07694,-0.0903 -0.442971,1.01039 -0.01786,0.69294 z m -6.821504,-0.9188 c 0.271796,-1.20177 1.155446,-4.9287 -0.765252,-2.94592 1.026721,0.78011 0.213347,2.56849 0.765252,2.94592 z m 3.414393,-0.80199 c 0.665821,-1.20037 0.800256,-3.18838 -0.03802,-1.07092 0.150738,0.003 -0.527815,1.40384 0.03802,1.07092 z m 5.655421,-0.15984 c -0.389276,-0.83449 -1.345293,0.0804 0,0 z m -15.987753,-0.17642 c 0.29841,-1.57841 -1.010477,-2.9327 -0.337628,-0.3987 -0.02675,0.0612 0.132037,0.66548 0.337628,0.3987 z m -3.11778,-0.32012 c -0.702694,-0.92263 1.194176,-1.11615 -0.505578,-0.74003 0.0985,0.13477 0.238424,1.05776 0.505578,0.74003 z m 6.179139,-0.8497 c 1.144281,-2.18695 -1.644351,-0.95736 0,0 z"
       id="path5142"
       inkscape:connector-curvature="0"
       inkscape:export-filename="/home/horacio/git/cityzendata/warp10-tiles-v2/examples/resources/warp10.png"
       inkscape:export-xdpi="215.92"
       inkscape:export-ydpi="215.92" />
  </g>
</svg>
